<?xml version="1.0" standalone="no"?><!DOCTYPE svg PUBLIC "-//W3C//DTD SVG 1.1//EN" "http://www.w3.org/Graphics/SVG/1.1/DTD/svg11.dtd"><svg t="1593246081965" class="icon" viewBox="0 0 1024 1024" version="1.1" xmlns="http://www.w3.org/2000/svg" p-id="1442" xmlns:xlink="http://www.w3.org/1999/xlink" width="200" height="200"><defs><style type="text/css"></style></defs><path d="M695.46 112.36c-71.52 0-136.16 29.39-182.54 76.73-46.38-47.34-111.03-76.73-182.54-76.73-141.15 0-255.57 114.42-255.57 255.56 0 292.09 438.12 547.64 438.12 547.64S951.05 660 951.05 367.92c-0.02-141.14-114.44-255.56-255.59-255.56z" fill="#ED5564" p-id="1443"></path><path d="M695.46 112.36c-12.39 0-24.58 0.9-36.5 2.61 123.85 17.72 219.06 124.21 219.06 252.95 0 240.25-296.4 455.78-401.61 524.71 22.7 14.88 36.51 22.93 36.51 22.93S951.04 660 951.04 367.92c-0.01-141.14-114.43-255.56-255.58-255.56z" fill="#FFFFFF" opacity=".2" p-id="1444"></path><path d="M706.68 462.68l-102.16-79.59-61.3-220.39a258.874 258.874 0 0 0-30.3 26.4c-0.12-0.12-0.24-0.23-0.35-0.35l54.2 194.86-171.35 77.6a18.266 18.266 0 0 0-10.27 20.66l36.94 163.53c1.91 8.48 9.45 14.24 17.8 14.24 1.32 0 2.68-0.15 4.04-0.45 9.83-2.22 16-11.99 13.78-21.83l-33.67-149.01 161.98-73.36 98.22 76.5c3.34 2.59 7.29 3.85 11.2 3.85 5.44 0 10.82-2.41 14.43-7.03 6.19-7.97 4.76-19.45-3.19-25.63z" fill="#434A54" p-id="1445"></path></svg>